# AST/ASF file generated using VICON BodyLanguage
# -----------------------------------------------
:version 1.10
:name VICON
:units
  mass 1.0
  length 0.45
  angle deg
:documentation
   .ast/.asf automatically generated from VICON data using
   VICON BodyBuilder and BodyLanguage model FoxedUp or BRILLIANT.MOD
:root
   order TX TY TZ RX RY RZ
   axis XYZ
   position 0 0 0  
   orientation 0 0 0 
:bonedata
  begin
     id 1 
     name lhipjoint
     direction 0.692814 -0.645514 0.321437 
     length 2.38754 
     axis 0 0 0  XYZ
  end
  begin
     id 2 
     name lfemur
     direction 0.34202 -0.939693 0  
     length 6.41921  
     axis 0 0 20  XYZ
    dof rx ry rz
    limits (-160.0 20.0)
           (-70.0 70.0)
           (-60.0 70.0)
  end
  begin
     id 3 
     name ltibia
     direction 0.34202 -0.939693 0   
     length 6.98247   
     axis 0 0 20   XYZ
    dof rx
    limits (-10.0 170.0)
  end
  begin
     id 4 
     name lfoot
     direction 0.0947186 -0.260237 0.960888   
     length 1.83034   
     axis -90 7.62852e-016 20   XYZ
    dof rx rz
    limits (-45.0 90.0)
           (-70.0 20.0)
  end
  begin
     id 5 
     name ltoes
     direction 1.53538e-011 -4.21952e-011 1   
     length 0.920499   
     axis -90 7.62852e-016 20   XYZ
    dof rx
    limits (-90.0 20.0)
  end
  begin
     id 6 
     name rhipjoint
     direction -0.631686 -0.693949 0.345555   
     length 2.2209  
     axis 0 0 0  XYZ 
  end
  begin
     id 7 
     name rfemur
     direction -0.34202 -0.939693 0   
     length 6.49542   
     axis 0 0 -20   XYZ
    dof rx ry rz
    limits (-160.0 20.0)
           (-70.0 70.0)
           (-70.0 60.0)
  end
  begin
     id 8 
     name rtibia
     direction -0.34202 -0.939693 0   
     length 7.21712   
     axis 0 0 -20   XYZ
    dof rx
    limits (-10.0 170.0)
 end
 begin
     id 9 
     name rfoot
     direction -0.0825378 -0.226771 0.970444   
     length 1.89724  
     axis -90 -7.62852e-016 -20   XYZ
    dof rx rz
    limits (-45.0 90.0)
           (-20.0 70.0)
  end
  begin
     id 10 
     name rtoes
     direction -1.53515e-011 -4.22016e-011 1   
     length 0.955868   
     axis -90 -7.62852e-016 -20   XYZ
    dof rx
    limits (-90.0 20.0)
  end
  begin
     id 11 
     name lowerback
     direction -0.0104711 0.984802 -0.173368   
     length 1.84931   
     axis 0 0 0   XYZ
    dof rx ry rz
    limits (-20.0 45.0)
           (-30.0 30.0)
           (-30.0 30.0)
  end
  begin
     id 12 
     name upperback
     direction -0.00286433 0.999996 -0.000382853   
     length 1.85768   
     axis 0 0 0   XYZ
    dof rx ry rz
    limits (-20.0 45.0)
           (-30.0 30.0)
           (-30.0 30.0)
  end
  begin
     id 13 
     name thorax
     direction 0.00167534 0.996793 0.0800069   
     length 1.92   
     axis 0 0 0   XYZ
    dof rx ry rz
    limits (-20.0 45.0)
           (-30.0 30.0)
           (-30.0 30.0)
  end
  begin
     id 14 
     name lowerneck
     direction -0.0672491 0.995415 0.068018   
     length 1.58923   
     axis 0 0 0   XYZ
    dof rx ry rz
    limits (-20.0 45.0)
           (-30.0 30.0)
           (-30.0 30.0)
  end
  begin
     id 15 
     name upperneck
     direction 0.0958019 0.982476 -0.159884   
     length 1.60189   
     axis 0 0 0   XYZ
    dof rx ry rz
    limits (-20.0 45.0)
           (-30.0 30.0)
           (-30.0 30.0)
  end
  begin
     id 16
     name head
     direction 0.032989 0.997338 -0.0650226  
     length 1.61681  
     axis 0 0 0   XYZ
    dof rx ry rz
    limits (-20.0 45.0)
           (-30.0 30.0)
           (-30.0 30.0)
  end
  begin
     id 17 
     name lclavicle
     direction 0.954279 0.298875 -0.00496069  
     length 2.99449  
     axis 0 0 0   XYZ
    dof ry rz
    limits (-20.0 10.0)
           (0.0 20.0)
  end
  begin
     id 18 
     name lhumerus
     direction 1 -4.48985e-011 -4.2057e-027   
     length 4.79185   
     axis 180 -30 -90   XYZ
    dof rx ry rz
    limits (-60.0 90.0)
           (-90.0 90.0)
           (-90.0 90.0)
  end
  begin
     id 19
     name lradius
     direction 1 -4.48945e-011 1.15441e-028   
     length 2.65553   
     axis 180 -30 -90   XYZ
    dof rx
    limits (-10.0 170.0)
  end
  begin
     id 20
     name lwrist
     direction 1 -4.4899e-011 4.8894e-028   
     length 1.32777   
     axis -2.56392e-016 90 90   XYZ
    dof ry
    limits (-180.0 0.0)
 end
  begin
     id 21 
     name lhand
     direction 1 -4.48908e-011 9.7788e-028   
     length 0.743904   
     axis -6.23971e-016 90 90   XYZ
    dof rx rz
    limits (-90.0 90.0)
           (-45.0 45.0)
  end
  begin
     id 22 
     name lfingers
     direction 1 -4.49068e-011 1.95576e-027   
     length 0.599754   
     axis -1.24794e-015 90 90   XYZ
    dof rx
    limits (0.0 90.0)
  end
  begin
     id 23
     name lthumb
     direction 0.707107 -6.34883e-011 0.707107   
     length 0.861131   
     axis -90 45 2.85299e-015   XYZ
    dof rx rz
    limits (-45.0 45.0)
           (-45.0 45.0)
  end
  begin
     id 24 
     name rclavicle
     direction -0.957921 0.286916 0.00811568   
     length 3.06817  
     axis 0 0 0   XYZ 
    dof ry rz
    limits (-10.0 20.0)
           (-20.0 0.0)
  end
  begin
     id 25 
     name rhumerus
     direction -1 -4.48971e-011 -3.07942e-027  
     length 4.77254   
     axis 180 30 90   XYZ
    dof rx ry rz
    limits (-90.0 60.0)
           (-90.0 90.0)
           (-90.0 90.0)
  end
  begin
     id 26 
     name rradius
     direction -1 -4.48957e-011 -9.6815e-028   
     length 2.75995   
     axis 180 30 90   XYZ
    dof rx
    limits (-10.0 170.0)
  end
  begin
     id 27 
     name rwrist
     direction -1 -4.48979e-011 4.8894e-028   
     length 1.37997   
     axis -2.56392e-016 -90 -90   XYZ
    dof ry
    limits (-180.0 0.0)
  end
  begin
     id 28
     name rhand
     direction -1 -4.48906e-011 9.7788e-028   
     length 0.701619   
     axis -6.23971e-016 -90 -90   XYZ
    dof rx rz
    limits (-90.0 90.0)
           (-45.0 45.0)
  end
  begin
     id 29
     name rfingers
     direction -1 -4.49018e-011 1.95576e-027   
     length 0.565663   
     axis -1.24794e-015 -90 -90   XYZ
    dof rx
    limits (0.0 90.0)
  end
  begin
     id 30
     name rthumb
     direction -0.707107 -6.34881e-011 0.707107   
     length 0.812183   
     axis -90 -45 -2.85299e-015   XYZ
    dof rx rz
    limits (-45.0 45.0)
           (-45.0 45.0)
  end
:hierarchy
  begin
    root lhipjoint rhipjoint lowerback
    lhipjoint lfemur
    lfemur ltibia
    ltibia lfoot
    lfoot ltoes
    rhipjoint rfemur
    rfemur rtibia
    rtibia rfoot
    rfoot rtoes
    lowerback upperback
    upperback thorax
    thorax lowerneck lclavicle rclavicle
    lowerneck upperneck
    upperneck head
    lclavicle lhumerus
    lhumerus lradius
    lradius lwrist
    lwrist lhand lthumb
    lhand lfingers
    rclavicle rhumerus
    rhumerus rradius
    rradius rwrist
    rwrist rhand rthumb
    rhand rfingers
  end

#!OML:ASF F:\VICON\USERDATA\INSTALL\rory3\rory3.ASF
:FULLY-SPECIFIED
:DEGREES
190
root 0.252246 15.8792 -1.25549 1.64219 -0.0175194 -0.235809
lowerback 18.3435 0.206599 -1.71014
upperback 4.34635 -0.0793926 -0.470733
thorax -5.59241 -0.0206838 0.488416
lowerneck -9.83647 -8.76073 -13.8989
upperneck 13.2829 -11.7559 12.9296
head 7.29084 -5.43995 5.28226
rclavicle 3.97569e-016 6.36111e-015
rhumerus -27.5654 22.7717 -101.091
rradius 92.0068
rwrist 32.3124
rhand -13.8191 6.35398
rfingers 7.12502
rthumb 12.3035 -23.264
lclavicle 3.97569e-016 6.36111e-015
lhumerus -25.9059 -20.9356 97.8939
lradius 91.9942
lwrist -8.32708
lhand -21.0679 16.3201
lfingers 7.12502
lthumb 5.30883 46.2336
rfemur -15.5701 13.2216 15.9632
rtibia 30.9008
rfoot -12.9668 -14.923
rtoes -16.3556
lfemur -13.8559 -11.8261 -15.6555
ltibia 26.6235
lfoot -10.9393 8.97537
ltoes -15.4887
191
root 0.249755 15.8763 -1.26048 1.7163 0.150597 -0.137465
lowerback 18.2913 0.167151 -1.77257
upperback 4.37975 -0.142809 -0.506219
thorax -5.52744 -0.0514759 0.500402
lowerneck -9.84988 -8.70349 -13.9511
upperneck 13.3038 -11.6749 12.9679
head 7.29396 -5.40036 5.3141
rclavicle -5.46658e-015 -3.97569e-016
rhumerus -27.6611 22.8038 -101.299
rradius 93.2978
rwrist 32.4173
rhand -13.4153 6.3259
rfingers 7.12502
rthumb 12.6928 -23.2684
lclavicle -5.46658e-015 -3.97569e-016
lhumerus -25.664 -21.1536 98.0264
lradius 92.6014
lwrist -8.27688
lhand -21.1513 16.3086
lfingers 7.12502
lthumb 5.22822 46.2241
rfemur -15.7291 13.1582 15.8499
rtibia 31.083
rfoot -13.0849 -15.0061
rtoes -16.2348
lfemur -14.0695 -11.9354 -15.725
ltibia 26.7801
lfoot -10.9629 8.93429
ltoes -15.6966
192
root 0.245026 15.871 -1.2735 1.78141 -0.149025 -0.0769079
lowerback 18.3535 0.306463 -1.95736
upperback 4.36887 0.00079739 -0.535465
thorax -5.57495 0.0206791 0.541694
lowerneck -9.78247 -8.63864 -13.9706
upperneck 13.2813 -11.5917 12.9906
head 7.26544 -5.36283 5.33833
rclavicle -5.66536e-015 7.95139e-016
rhumerus -27.6257 22.8665 -101.516
rradius 93.9947
rwrist 32.5112
rhand -13.1491 6.48524
rfingers 7.12502
rthumb 12.9494 -23.0929
lclavicle -5.66536e-015 7.95139e-016
lhumerus -25.4272 -21.3333 98.1061
lradius 93.1274
lwrist -8.29326
lhand -21.2862 16.2511
lfingers 7.12502
lthumb 5.09798 46.1698
rfemur -16.0133 13.3403 15.7515
rtibia 31.2489
rfoot -13.0707 -14.8756
rtoes -16.2579
lfemur -14.2252 -11.7123 -15.761
ltibia 26.9582
lfoot -11.0662 8.98536
ltoes -15.7942
193
root 0.238541 15.8659 -1.2877 1.79875 -0.329931 -0.147577
lowerback 18.4872 0.400616 -2.0064
upperback 4.37183 0.110894 -0.534934
thorax -5.64548 0.0752576 0.544781
lowerneck -9.86005 -8.60034 -13.8868
upperneck 13.4191 -11.5434 12.9206
head 7.30672 -5.33633 5.30592
rclavicle 3.97569e-015 -3.57812e-015
rhumerus -27.4008 23.0115 -101.696
rradius 94.212
rwrist 32.6702
rhand -13.1414 6.78236
rfingers 7.12502
rthumb 12.9569 -22.7953
lclavicle 3.97569e-015 -3.57812e-015
lhumerus -25.1543 -21.4672 98.1425
lradius 93.6022
lwrist -8.37755
lhand -21.3252 16.0418
lfingers 7.12502
lthumb 5.0604 45.9614
rfemur -16.2037 13.505 15.8332
rtibia 31.394
rfoot -13.0679 -14.8612
rtoes -16.0584
lfemur -14.392 -11.5478 -15.6356
ltibia 27.1932
lfoot -11.1654 8.9565
ltoes -15.5895
194
root 0.232993 15.8614 -1.30125 1.81892 -0.262571 -0.301917
lowerback 18.6321 0.38835 -1.90005
upperback 4.37745 0.113568 -0.501784
thorax -5.71663 0.0759717 0.518731
lowerneck -9.98838 -8.58235 -13.8303
upperneck 13.5688 -11.5152 12.8587
head 7.36607 -5.31813 5.27627
rclavicle -2.38542e-015 -7.55382e-015
rhumerus -27.2249 23.1738 -101.855
rradius 94.5248
rwrist 32.7956
rhand -12.9442 6.75911
rfingers 7.12502
rthumb 13.147 -22.8064
lclavicle -2.38542e-015 -7.55382e-015
lhumerus -24.8732 -21.6079 98.1627
lradius 94.0088
lwrist -8.41148
lhand -21.361 15.7164
lfingers 7.12502
lthumb 5.02574 45.6368
rfemur -16.3427 13.555 16.0146
rtibia 31.5172
rfoot -13.0396 -14.9656
rtoes -15.8869
lfemur -14.6463 -11.5706 -15.4088
ltibia 27.4625
lfoot -11.1803 8.89835
ltoes -15.5655
195
root 0.228447 15.8564 -1.31664 1.86069 -0.202144 -0.488254
lowerback 18.7861 0.374504 -1.75074
upperback 4.36793 0.123347 -0.453766
thorax -5.80894 0.0798247 0.482418
lowerneck -10.1231 -8.57357 -13.8848
upperneck 13.733 -11.5003 12.8998
head 7.44673 -5.30416 5.29749
rclavicle 8.94531e-016 5.56597e-015
rhumerus -27.0963 23.3678 -101.994
rradius 94.9518
rwrist 32.8371
rhand -12.6778 6.52889
rfingers 7.12502
rthumb 13.4038 -23.0199
lclavicle 8.94531e-016 5.56597e-015
lhumerus -24.6033 -21.7808 98.1999
lradius 94.3435
lwrist -8.39636
lhand -21.3454 15.4841
lfingers 7.12502
lthumb 5.04088 45.4042
rfemur -16.519 13.5901 16.2128
rtibia 31.633
rfoot -13.0334 -15.0263
rtoes -15.6015
lfemur -14.9114 -11.5653 -15.1488
ltibia 27.686
lfoot -11.163 8.81026
ltoes -15.6512
